<?xml version="1.0" encoding="utf-8"?>
<svg viewBox="80.402 155.878 960 210.04" xmlns="http://www.w3.org/2000/svg">
  <defs>
    <linearGradient gradientUnits="userSpaceOnUse" x1="526.032" y1="36.811" x2="526.032" y2="89.811" id="gradient-0" gradientTransform="matrix(0.003111, -0.999996, 17.67395, 0.054989, -561.165561, 696.939471)">
      <stop offset="0" style="stop-color: rgb(75, 215, 147);"/>
      <stop offset="1" style="stop-color: rgb(92, 183, 188);"/>
    </linearGradient>
  </defs>
  <path d="M 80.402 356.878 L 98.202 351.878 C 116.102 346.878 151.702 336.878 187.202 326.878 C 222.702 316.878 258.102 306.878 293.602 311.878 C 329.102 316.878 364.702 336.878 400.402 350.378 C 436.102 363.878 471.702 370.878 507.202 361.878 C 542.702 352.878 578.102 327.878 613.602 322.178 C 649.102 316.578 684.702 330.178 720.402 331.178 C 756.102 332.178 791.702 320.578 827.202 315.578 C 862.702 310.578 898.102 312.178 933.602 315.578 C 969.102 318.878 1004.702 323.878 1022.602 326.378 L 1040.402 328.878 L 1040.402 155.878 L 1022.602 155.878 C 1004.702 155.878 969.102 155.878 933.602 155.878 C 898.102 155.878 862.702 155.878 827.202 155.878 C 791.702 155.878 756.102 155.878 720.402 155.878 C 684.702 155.878 649.102 155.878 613.602 155.878 C 578.102 155.878 542.702 155.878 507.202 155.878 C 471.702 155.878 436.102 155.878 400.402 155.878 C 364.702 155.878 329.102 155.878 293.602 155.878 C 258.102 155.878 222.702 155.878 187.202 155.878 C 151.702 155.878 116.102 155.878 98.202 155.878 L 80.402 155.878 Z" fill="#5cb7bc"/>
  <path d="M 80.402 292.878 L 98.202 291.578 C 116.102 290.178 151.702 287.578 187.202 286.578 C 222.702 285.578 258.102 286.178 293.602 295.078 C 329.102 303.878 364.702 320.878 400.402 323.078 C 436.102 325.178 471.702 312.578 507.202 301.678 C 542.702 290.878 578.102 281.878 613.602 278.378 C 649.102 274.878 684.702 276.878 720.402 277.078 C 756.102 277.178 791.702 275.578 827.202 285.878 C 862.702 296.178 898.102 318.578 933.602 328.678 C 969.102 338.878 1004.702 336.878 1022.602 335.878 L 1040.402 334.878 L 1040.402 155.878 L 1022.602 155.878 C 1004.702 155.878 969.102 155.878 933.602 155.878 C 898.102 155.878 862.702 155.878 827.202 155.878 C 791.702 155.878 756.102 155.878 720.402 155.878 C 684.702 155.878 649.102 155.878 613.602 155.878 C 578.102 155.878 542.702 155.878 507.202 155.878 C 471.702 155.878 436.102 155.878 400.402 155.878 C 364.702 155.878 329.102 155.878 293.602 155.878 C 258.102 155.878 222.702 155.878 187.202 155.878 C 151.702 155.878 116.102 155.878 98.202 155.878 L 80.402 155.878 Z" fill="#4bbfbb"/>
  <path d="M 80.402 276.878 L 98.202 273.878 C 116.102 270.878 151.702 264.878 187.202 261.378 C 222.702 257.878 258.102 256.878 293.602 265.078 C 329.102 273.178 364.702 290.578 400.402 297.578 C 436.102 304.578 471.702 301.178 507.202 293.178 C 542.702 285.178 578.102 272.578 613.602 267.578 C 649.102 262.578 684.702 265.178 720.402 264.178 C 756.102 263.178 791.702 258.578 827.202 257.178 C 862.702 255.878 898.102 257.878 933.602 264.878 C 969.102 271.878 1004.702 283.878 1022.602 289.878 L 1040.402 295.878 L 1040.402 155.878 L 1022.602 155.878 C 1004.702 155.878 969.102 155.878 933.602 155.878 C 898.102 155.878 862.702 155.878 827.202 155.878 C 791.702 155.878 756.102 155.878 720.402 155.878 C 684.702 155.878 649.102 155.878 613.602 155.878 C 578.102 155.878 542.702 155.878 507.202 155.878 C 471.702 155.878 436.102 155.878 400.402 155.878 C 364.702 155.878 329.102 155.878 293.602 155.878 C 258.102 155.878 222.702 155.878 187.202 155.878 C 151.702 155.878 116.102 155.878 98.202 155.878 L 80.402 155.878 Z" fill="#3cc6b7"/>
  <path d="M 80.402 260.878 L 98.202 259.178 C 116.102 257.578 151.702 254.178 187.202 249.578 C 222.702 244.878 258.102 238.878 293.602 242.378 C 329.102 245.878 364.702 258.878 400.402 264.178 C 436.102 269.578 471.702 267.178 507.202 260.678 C 542.702 254.178 578.102 243.578 613.602 237.578 C 649.102 231.578 684.702 230.178 720.402 237.578 C 756.102 244.878 791.702 260.878 827.202 269.078 C 862.702 277.178 898.102 277.578 933.602 276.578 C 969.102 275.578 1004.702 273.178 1022.602 272.078 L 1040.402 270.878 L 1040.402 155.878 L 1022.602 155.878 C 1004.702 155.878 969.102 155.878 933.602 155.878 C 898.102 155.878 862.702 155.878 827.202 155.878 C 791.702 155.878 756.102 155.878 720.402 155.878 C 684.702 155.878 649.102 155.878 613.602 155.878 C 578.102 155.878 542.702 155.878 507.202 155.878 C 471.702 155.878 436.102 155.878 400.402 155.878 C 364.702 155.878 329.102 155.878 293.602 155.878 C 258.102 155.878 222.702 155.878 187.202 155.878 C 151.702 155.878 116.102 155.878 98.202 155.878 L 80.402 155.878 Z" fill="#35ccae"/>
  <path d="M 80.402 206.878 L 98.202 206.878 C 116.102 206.878 151.702 206.878 187.202 212.578 C 222.702 218.178 258.102 229.578 293.602 231.378 C 329.102 233.178 364.702 225.578 400.402 223.578 C 436.102 221.578 471.702 225.178 507.202 223.578 C 542.702 221.878 578.102 214.878 613.602 213.678 C 649.102 212.578 684.702 217.178 720.402 222.578 C 756.102 227.878 791.702 233.878 827.202 234.678 C 862.702 235.578 898.102 231.178 933.602 227.078 C 969.102 222.878 1004.702 218.878 1022.602 216.878 L 1040.402 214.878 L 1040.402 155.878 L 1022.602 155.878 C 1004.702 155.878 969.102 155.878 933.602 155.878 C 898.102 155.878 862.702 155.878 827.202 155.878 C 791.702 155.878 756.102 155.878 720.402 155.878 C 684.702 155.878 649.102 155.878 613.602 155.878 C 578.102 155.878 542.702 155.878 507.202 155.878 C 471.702 155.878 436.102 155.878 400.402 155.878 C 364.702 155.878 329.102 155.878 293.602 155.878 C 258.102 155.878 222.702 155.878 187.202 155.878 C 151.702 155.878 116.102 155.878 98.202 155.878 L 80.402 155.878 Z" fill="#3bd2a2"/>
  <path d="M 80.402 193.878 L 98.202 190.578 C 116.102 187.178 151.702 180.578 187.202 181.078 C 222.702 181.578 258.102 189.178 293.602 192.078 C 329.102 194.878 364.702 192.878 400.402 190.578 C 436.102 188.178 471.702 185.578 507.202 188.878 C 542.702 192.178 578.102 201.578 613.602 205.078 C 649.102 208.578 684.702 206.178 720.402 204.578 C 756.102 202.878 791.702 201.878 827.202 199.878 C 862.702 197.878 898.102 194.878 933.602 196.178 C 969.102 197.578 1004.702 203.178 1022.602 206.078 L 1040.402 208.878 L 1040.402 155.878 L 1022.602 155.878 C 1004.702 155.878 969.102 155.878 933.602 155.878 C 898.102 155.878 862.702 155.878 827.202 155.878 C 791.702 155.878 756.102 155.878 720.402 155.878 C 684.702 155.878 649.102 155.878 613.602 155.878 C 578.102 155.878 542.702 155.878 507.202 155.878 C 471.702 155.878 436.102 155.878 400.402 155.878 C 364.702 155.878 329.102 155.878 293.602 155.878 C 258.102 155.878 222.702 155.878 187.202 155.878 C 151.702 155.878 116.102 155.878 98.202 155.878 L 80.402 155.878 Z" style="stroke-dashoffset: 23px; fill: url(#gradient-0);"/>
</svg>